# xmcd CD database file
#
# Track frame offsets:
#	150
#	16380
#	36791
#	57396
#	77232
#	95747
#	112291
#	120261
#	138338
#	153264
#	166786
#	180887
#	201348
#	211808
#	228433
#	243690
#
# Disc length: 3376 seconds
#
# Revision: 0
# Processed by: cddbd v1.5.2PL0 Copyright (c) Steve Scherf et al.
# Submitted via: CDex 1.70beta2
#
DISCID=d40d2e10
DTITLE=Ketil Bjørnstad - Images
DYEAR=2014
DGENRE=Jazz
TTITLE0=Image no.1
TTITLE1=Image no.2
TTITLE2=Image no.3
TTITLE3=Image no.4
TTITLE4=Image no.5
TTITLE5=Image no.6
TTITLE6=Image no.7
TTITLE7=Image no.8
TTITLE8=Image no.9
TTITLE9=Image no.10
TTITLE10=Image no.11
TTITLE11=Image no.12
TTITLE12=Image no.13
TTITLE13=Image no.14
TTITLE14=Image no.15
TTITLE15=Image no.16
EXTD=YEAR: 2014
EXTT0=
EXTT1=
EXTT2=
EXTT3=
EXTT4=
EXTT5=
EXTT6=
EXTT7=
EXTT8=
EXTT9=
EXTT10=
EXTT11=
EXTT12=
EXTT13=
EXTT14=
EXTT15=
PLAYORDER=
